<?xml version="1.0" encoding="UTF-8"?>
<svg id="normal_copy" data-name="normal copy" xmlns="http://www.w3.org/2000/svg" viewBox="0 0 978 1012.5">
  <defs>
    <style>
      .cls-1 {
        fill: #cd996d;
      }

      .cls-1, .cls-2, .cls-3 {
        stroke-width: 0px;
      }

      .cls-2 {
        fill: #523e29;
      }

      .cls-3 {
        fill: #e6d1b9;
      }
    </style>
  </defs>
  <circle class="cls-3" cx="371" cy="607" r="371"/>
  <path id="hat" class="cls-2" d="M642.05,616.41l-251.04,183c-11.73,8.56-28.29,8.56-40.02,0l-251.04-183c-1.44-1.05-2.76-2.19-3.95-3.4v98.96l7.45,12.95c1.56,2.71-.39,6.08-3.51,6.08h-15.02c-3.12,0-5.07-3.37-3.51-6.08l6.59-11.44v-116.15c-1.59-10.08,2.4-20.78,11.95-27.74l251.04-183c11.73-8.56,28.29-8.56,40.02,0l251.04,183c16.39,11.94,16.39,34.88,0,46.82Z"/>
  <path class="cls-1" d="M590.62,723c0,111.7-98.33,108-219.62,108s-219.62,3.7-219.62-108,98.33-202.25,219.62-202.25,219.62,90.55,219.62,202.25Z"/>
  <ellipse class="cls-2" cx="266.49" cy="658.99" rx="36.49" ry="27.16" transform="translate(-130.16 69.11) rotate(-11.9)"/>
  <ellipse class="cls-2" cx="475.49" cy="658.99" rx="27.16" ry="36.49" transform="translate(-267.39 988.37) rotate(-78.1)"/>
  <path class="cls-2" d="M370.5,730c-11.19,0-30.29-3.95-37.09-14.82-1.76-2.81-.9-6.51,1.91-8.27,2.81-1.76,6.51-.9,8.27,1.91,3.06,4.89,15.63,9.18,26.91,9.18,11.97,0,25.4-4.22,27.63-8.68,1.48-2.96,5.08-4.16,8.05-2.68,2.96,1.48,4.17,5.09,2.68,8.05-6.06,12.12-27.75,15.32-38.37,15.32Z"/>
</svg>